<svg width="40" height="40" viewBox="0 0 40 40" fill="none" xmlns="http://www.w3.org/2000/svg">
<path d="M20 36.6666C21.0322 36.6679 22.0391 36.3476 22.8808 35.7502C23.7225 35.1529 24.3572 34.3081 24.6967 33.3333H15.3033C15.6428 34.3081 16.2775 35.1529 17.1192 35.7502C17.9609 36.3476 18.9678 36.6679 20 36.6666ZM31.6667 24.31V16.6666C31.6667 11.305 28.025 6.78831 23.0917 5.42998C22.6033 4.19998 21.41 3.33331 20 3.33331C18.59 3.33331 17.3967 4.19998 16.9083 5.42998C11.975 6.78998 8.33334 11.305 8.33334 16.6666V24.31L5.48834 27.155C5.33326 27.3095 5.21028 27.4931 5.12648 27.6954C5.04267 27.8976 4.99968 28.1144 5 28.3333V30C5 30.442 5.1756 30.8659 5.48816 31.1785C5.80072 31.4911 6.22464 31.6666 6.66667 31.6666H33.3333C33.7754 31.6666 34.1993 31.4911 34.5119 31.1785C34.8244 30.8659 35 30.442 35 30V28.3333C35.0003 28.1144 34.9573 27.8976 34.8735 27.6954C34.7897 27.4931 34.6667 27.3095 34.5117 27.155L31.6667 24.31Z" fill="#333533"/>
</svg>
