<svg width="30" height="30" viewBox="0 0 30 30" fill="none" xmlns="http://www.w3.org/2000/svg">
<path d="M17.5 10H5C3.62125 10 2.5 11.1212 2.5 12.5V25C2.5 26.3787 3.62125 27.5 5 27.5H17.5C18.8787 27.5 20 26.3787 20 25V12.5C20 11.1212 18.8787 10 17.5 10Z" fill="#EBEFE3"/>
<path d="M25 2.5H12.5C11.837 2.5 11.2011 2.76339 10.7322 3.23223C10.2634 3.70107 10 4.33696 10 5V7.5H20C20.663 7.5 21.2989 7.76339 21.7678 8.23223C22.2366 8.70107 22.5 9.33696 22.5 10V20H25C25.663 20 26.2989 19.7366 26.7678 19.2678C27.2366 18.7989 27.5 18.163 27.5 17.5V5C27.5 4.33696 27.2366 3.70107 26.7678 3.23223C26.2989 2.76339 25.663 2.5 25 2.5Z" fill="#EBEFE3"/>
</svg>
