<svg width="298" height="56" viewBox="0 0 298 56" fill="none" xmlns="http://www.w3.org/2000/svg">
<g clip-path="url(#clip0_450_70)">
<path d="M38.8413 0H4.24242C1.8994 0 0 1.8994 0 4.24242V51.1509C0 53.4939 1.8994 55.3933 4.24242 55.3933H38.8413C41.1843 55.3933 43.0837 53.4939 43.0837 51.1509V4.24242C43.0837 1.8994 41.1843 0 38.8413 0Z" fill="#F5CB5C"/>
<path d="M89.6185 0H55.0197C52.6766 0 50.7772 1.8994 50.7772 4.24242V51.1509C50.7772 53.4939 52.6766 55.3933 55.0197 55.3933H89.6185C91.9615 55.3933 93.8609 53.4939 93.8609 51.1509V4.24242C93.8609 1.8994 91.9615 0 89.6185 0Z" fill="#F5CB5C"/>
<path d="M293.387 0H258.788C256.445 0 254.545 1.8994 254.545 4.24242V51.1509C254.545 53.4939 256.445 55.3933 258.788 55.3933H293.387C295.73 55.3933 297.629 53.4939 297.629 51.1509V4.24242C297.629 1.8994 295.73 0 293.387 0Z" fill="#F5CB5C"/>
<path d="M242.345 0H207.746C205.403 0 203.504 1.8994 203.504 4.24242V51.1509C203.504 53.4939 205.403 55.3933 207.746 55.3933H242.345C244.688 55.3933 246.588 53.4939 246.588 51.1509V4.24242C246.588 1.8994 244.688 0 242.345 0Z" fill="#F5CB5C"/>
<path d="M191.569 0H156.97C154.627 0 152.727 1.8994 152.727 4.24242V51.1509C152.727 53.4939 154.627 55.3933 156.97 55.3933H191.569C193.912 55.3933 195.811 53.4939 195.811 51.1509V4.24242C195.811 1.8994 193.912 0 191.569 0Z" fill="#F5CB5C"/>
<path d="M140.396 0H105.797C103.454 0 101.554 1.8994 101.554 4.24242V51.1509C101.554 53.4939 103.454 55.3933 105.797 55.3933H140.396C142.739 55.3933 144.638 53.4939 144.638 51.1509V4.24242C144.638 1.8994 142.739 0 140.396 0Z" fill="#F5CB5C"/>
<path d="M19.1295 42.4243H8.18114V12.8044H19.115C22.1329 12.8044 24.7314 13.3974 26.9105 14.5833C29.0992 15.7597 30.7865 17.4567 31.9724 19.6743C33.1584 21.8823 33.7514 24.5241 33.7514 27.5999C33.7514 30.6853 33.1584 33.3368 31.9724 35.5544C30.7962 37.772 29.1136 39.4738 26.925 40.6598C24.7362 41.8361 22.1377 42.4243 19.1295 42.4243ZM15.3402 36.3209H18.8547C20.5131 36.3209 21.9159 36.0414 23.0633 35.4821C24.2204 34.9132 25.093 33.9924 25.6811 32.7197C26.2789 31.4373 26.5779 29.7308 26.5779 27.5999C26.5779 25.469 26.2789 23.772 25.6811 22.509C25.0833 21.2362 24.2011 20.3203 23.0344 19.7611C21.8774 19.1921 20.4504 18.9077 18.7535 18.9077H15.3402V36.3209Z" fill="#333533"/>
<path d="M77.8582 12.8044H85.0029V31.9098C85.0029 34.1178 84.4773 36.0414 83.4263 37.6805C82.3753 39.3099 80.9098 40.573 79.0296 41.4697C77.1494 42.3568 74.9656 42.8003 72.478 42.8003C69.9614 42.8003 67.763 42.3568 65.8829 41.4697C64.0027 40.573 62.542 39.3099 61.5007 37.6805C60.4594 36.0414 59.9387 34.1178 59.9387 31.9098V12.8044H67.0978V31.2879C67.0978 32.3099 67.3195 33.2211 67.7631 34.0214C68.2162 34.8217 68.8478 35.4484 69.6577 35.9015C70.4676 36.3547 71.4077 36.5812 72.478 36.5812C73.5482 36.5812 74.4835 36.3547 75.2838 35.9015C76.0936 35.4484 76.7252 34.8217 77.1783 34.0214C77.6315 33.2211 77.8582 32.3099 77.8582 31.2879V12.8044Z" fill="#333533"/>
<path d="M137.108 27.6144C137.108 30.8733 136.48 33.6356 135.227 35.9015C133.974 38.1674 132.277 39.8885 130.136 41.0647C128.006 42.2411 125.614 42.8292 122.962 42.8292C120.302 42.8292 117.905 42.2362 115.775 41.0503C113.644 39.8644 111.952 38.1432 110.698 35.8871C109.455 33.6212 108.833 30.8636 108.833 27.6144C108.833 24.3553 109.455 21.593 110.698 19.3271C111.952 17.0613 113.644 15.3402 115.775 14.1639C117.905 12.9876 120.302 12.3994 122.962 12.3994C125.614 12.3994 128.006 12.9876 130.136 14.1639C132.277 15.3402 133.974 17.0613 135.227 19.3271C136.48 21.593 137.108 24.3553 137.108 27.6144ZM129.789 27.6144C129.789 25.6859 129.514 24.0565 128.965 22.7259C128.425 21.3953 127.644 20.3877 126.622 19.7032C125.61 19.0186 124.39 18.6763 122.962 18.6763C121.545 18.6763 120.326 19.0186 119.304 19.7032C118.281 20.3877 117.496 21.3953 116.947 22.7259C116.406 24.0565 116.136 25.6859 116.136 27.6144C116.136 29.5427 116.406 31.1721 116.947 32.5027C117.496 33.8333 118.281 34.8409 119.304 35.5255C120.326 36.21 121.545 36.5523 122.962 36.5523C124.39 36.5523 125.61 36.21 126.622 35.5255C127.644 34.8409 128.425 33.8333 128.965 32.5027C129.514 31.1721 129.789 29.5427 129.789 27.6144Z" fill="#333533"/>
<path d="M178.615 21.6846C178.52 20.6239 178.09 19.7996 177.328 19.2114C176.576 18.6136 175.501 18.3147 174.103 18.3147C173.177 18.3147 172.406 18.4353 171.789 18.6763C171.172 18.9174 170.709 19.25 170.401 19.6742C170.092 20.0888 169.933 20.5661 169.924 21.1061C169.904 21.5496 169.991 21.9401 170.184 22.2776C170.387 22.615 170.675 22.9139 171.052 23.1742C171.437 23.425 171.9 23.6467 172.44 23.8395C172.98 24.0324 173.587 24.2011 174.263 24.3457L176.808 24.9242C178.273 25.2424 179.566 25.6667 180.684 26.197C181.812 26.7273 182.757 27.3588 183.519 28.0916C184.29 28.8244 184.873 29.668 185.268 30.6226C185.664 31.5771 185.867 32.6474 185.876 33.8333C185.867 35.7038 185.394 37.3092 184.459 38.6494C183.523 39.9897 182.178 41.0165 180.424 41.73C178.678 42.4435 176.571 42.8003 174.103 42.8003C171.626 42.8003 169.465 42.4291 167.624 41.6866C165.782 40.9442 164.351 39.8161 163.328 38.3023C162.307 36.7886 161.781 34.8747 161.752 32.5606H168.608C168.665 33.5151 168.921 34.3106 169.374 34.947C169.827 35.5833 170.449 36.0654 171.24 36.3932C172.04 36.7211 172.965 36.885 174.017 36.885C174.98 36.885 175.8 36.7548 176.476 36.4945C177.159 36.2341 177.685 35.8726 178.052 35.4098C178.418 34.947 178.606 34.4167 178.615 33.8189C178.606 33.2597 178.432 32.7824 178.095 32.3871C177.758 31.9821 177.237 31.635 176.533 31.3457C175.839 31.0468 174.952 30.772 173.872 30.5214L170.777 29.7982C168.212 29.21 166.192 28.2603 164.717 26.9491C163.242 25.6281 162.509 23.8444 162.519 21.5978C162.509 19.7659 163.001 18.1605 163.993 16.7817C164.987 15.4029 166.361 14.3279 168.115 13.5565C169.871 12.7851 171.872 12.3994 174.118 12.3994C176.413 12.3994 178.403 12.79 180.091 13.5709C181.788 14.3423 183.104 15.427 184.039 16.825C184.975 18.2232 185.452 19.843 185.471 21.6846H178.615Z" fill="#333533"/>
<path d="M214.363 42.4243V12.8044H235.016V18.6185H221.522V24.6929H233.96V30.5214H221.522V36.6102H235.016V42.4243H214.363Z" fill="#333533"/>
<path d="M289.876 23.5358H282.646C282.549 22.7934 282.351 22.1233 282.052 21.5255C281.754 20.9277 281.358 20.4167 280.866 19.9924C280.375 19.5682 279.791 19.2452 279.117 19.0235C278.452 18.792 277.713 18.6763 276.904 18.6763C275.467 18.6763 274.228 19.0282 273.187 19.7321C272.155 20.4359 271.36 21.4532 270.801 22.7838C270.251 24.1144 269.976 25.7245 269.976 27.6144C269.976 29.5812 270.255 31.23 270.815 32.5606C271.384 33.8815 272.18 34.8795 273.201 35.5544C274.233 36.2197 275.452 36.5523 276.861 36.5523C277.651 36.5523 278.369 36.4511 279.015 36.2486C279.671 36.0462 280.244 35.7521 280.736 35.3664C281.238 34.9711 281.648 34.4938 281.966 33.9346C282.293 33.3657 282.52 32.7245 282.646 32.011L289.876 32.0544C289.752 33.3657 289.371 34.6577 288.734 35.9304C288.107 37.2032 287.244 38.365 286.146 39.4159C285.046 40.4573 283.706 41.2865 282.125 41.9036C280.553 42.5206 278.75 42.8292 276.716 42.8292C274.035 42.8292 271.634 42.2411 269.513 41.0647C267.402 39.8788 265.734 38.1529 264.509 35.8871C263.285 33.6212 262.672 30.8636 262.672 27.6144C262.672 24.3553 263.294 21.593 264.538 19.3271C265.782 17.0613 267.464 15.3402 269.586 14.1639C271.707 12.9876 274.084 12.3994 276.716 12.3994C278.509 12.3994 280.167 12.6501 281.691 13.1515C283.214 13.6432 284.555 14.3664 285.711 15.3209C286.868 16.2659 287.809 17.4277 288.532 18.8065C289.255 20.1853 289.703 21.7617 289.876 23.5358Z" fill="#333533"/>
</g>
<defs>
<clipPath id="clip0_450_70">
<rect width="297.818" height="56" fill="white"/>
</clipPath>
</defs>
</svg>
