<svg width="50" height="50" viewBox="0 0 50 50" fill="none" xmlns="http://www.w3.org/2000/svg">
<path d="M43.6396 17.3021C43.6186 15.7242 43.3232 14.162 42.7667 12.6854C42.2841 11.4399 41.547 10.3087 40.6024 9.36423C39.6579 8.41972 38.5268 7.68261 37.2812 7.2C35.8236 6.65283 34.2837 6.35696 32.7271 6.325C30.7229 6.23542 30.0875 6.21042 25 6.21042C19.9125 6.21042 19.2604 6.21042 17.2708 6.325C15.7149 6.3572 14.1757 6.65306 12.7187 7.2C11.473 7.68227 10.3417 8.41926 9.39715 9.36382C8.45259 10.3084 7.7156 11.4397 7.23333 12.6854C6.68506 14.1419 6.38983 15.6815 6.36041 17.2375C6.27083 19.2438 6.24374 19.8792 6.24374 24.9667C6.24374 30.0542 6.24374 30.7042 6.36041 32.6958C6.39166 34.2542 6.68541 35.7917 7.23333 37.2521C7.71641 38.4974 8.45394 39.6283 9.39882 40.5724C10.3437 41.5166 11.4751 42.2533 12.7208 42.7354C14.1738 43.3046 15.7133 43.6216 17.2729 43.6729C19.2792 43.7625 19.9146 43.7896 25.0021 43.7896C30.0896 43.7896 30.7417 43.7896 32.7312 43.6729C34.2878 43.6423 35.8278 43.3471 37.2854 42.8C38.5306 42.3168 39.6615 41.5795 40.6059 40.6351C41.5504 39.6906 42.2877 38.5598 42.7708 37.3146C43.3187 35.8562 43.6125 34.3188 43.6437 32.7583C43.7333 30.7542 43.7604 30.1188 43.7604 25.0292C43.7562 19.9417 43.7562 19.2958 43.6396 17.3021ZM24.9875 34.5875C19.6667 34.5875 15.3562 30.2771 15.3562 24.9563C15.3562 19.6354 19.6667 15.325 24.9875 15.325C27.5419 15.325 29.9916 16.3397 31.7978 18.1459C33.604 19.9521 34.6187 22.4019 34.6187 24.9563C34.6187 27.5106 33.604 29.9604 31.7978 31.7666C29.9916 33.5728 27.5419 34.5875 24.9875 34.5875ZM35.0021 17.2146C34.7071 17.2149 34.4149 17.157 34.1423 17.0442C33.8697 16.9314 33.622 16.766 33.4134 16.5574C33.2048 16.3488 33.0394 16.1011 32.9266 15.8285C32.8139 15.5559 32.756 15.2638 32.7562 14.9688C32.7562 14.674 32.8143 14.3821 32.9271 14.1097C33.0399 13.8374 33.2053 13.5899 33.4137 13.3814C33.6222 13.173 33.8696 13.0076 34.142 12.8948C34.4143 12.782 34.7062 12.724 35.001 12.724C35.2958 12.724 35.5877 12.782 35.8601 12.8948C36.1324 13.0076 36.3799 13.173 36.5883 13.3814C36.7968 13.5899 36.9621 13.8374 37.075 14.1097C37.1878 14.3821 37.2458 14.674 37.2458 14.9688C37.2458 16.2104 36.2417 17.2146 35.0021 17.2146Z" fill="#E8EDDF"/>
<path d="M24.9875 31.2125C28.4427 31.2125 31.2437 28.4115 31.2437 24.9563C31.2437 21.501 28.4427 18.7 24.9875 18.7C21.5323 18.7 18.7312 21.501 18.7312 24.9563C18.7312 28.4115 21.5323 31.2125 24.9875 31.2125Z" fill="#E8EDDF"/>
</svg>
