<svg width="45" height="45" viewBox="0 0 45 45" fill="none" xmlns="http://www.w3.org/2000/svg">
<path d="M7.5 37.5V24.375H20.625L14.5931 30.4125C15.6234 31.466 16.8532 32.3037 18.2108 32.8767C19.5683 33.4498 21.0265 33.7466 22.5 33.75C24.8236 33.7465 27.0891 33.0237 28.9854 31.6807C30.8816 30.3378 32.3155 28.4407 33.09 26.25H33.1237C33.3375 25.6406 33.5006 25.0125 33.6094 24.375H37.3819C36.9252 27.9997 35.1613 31.3332 32.4213 33.7498C29.6812 36.1664 26.1534 37.4998 22.5 37.5H22.4812C20.5122 37.5058 18.5614 37.1211 16.7421 36.368C14.9227 35.6148 13.2707 34.5083 11.8819 33.1125L7.5 37.5ZM11.3887 20.625H7.61625C8.07277 17.0015 9.83558 13.669 12.574 11.2526C15.3125 8.8362 18.8385 7.50189 22.4906 7.49995H22.5C24.4694 7.49372 26.4205 7.8783 28.2403 8.63143C30.06 9.38456 31.7122 10.4913 33.1012 11.8875L37.5 7.49995V20.625H24.375L30.4162 14.5875C29.3849 13.5327 28.1536 12.6943 26.7943 12.1212C25.4351 11.5481 23.9751 11.2519 22.5 11.25C20.1764 11.2534 17.9109 11.9762 16.0146 13.3192C14.1184 14.6621 12.6845 16.5592 11.91 18.75H11.8762C11.6606 19.3593 11.4975 19.9875 11.3906 20.625H11.3887Z" fill="#E8EDDF"/>
</svg>
